<svg xmlns="http://www.w3.org/2000/svg" xmlns:xlink="http://www.w3.org/1999/xlink" viewBox="0 0 3204.701 3004.683" class="tri-circle"> <defs> <linearGradient id="core-seo" x1="0.5" x2="0.5" y2="1" gradientUnits="objectBoundingBox"> <stop offset="0" stop-color="#ed610c"></stop> <stop offset="1" stop-color="#f28d12"></stop> </linearGradient> <linearGradient id="content-marketing" x1="0.5" x2="0.5" y2="1" gradientUnits="objectBoundingBox"> <stop offset="0" stop-color="#AB0CED"></stop> <stop offset="1" stop-color="#F21271"></stop> </linearGradient> <linearGradient id="digital-pr" x1="0.5" x2="0.5" y2="1" gradientUnits="objectBoundingBox"> <stop offset="0" stop-color="#1051FF"></stop> <stop offset="1" stop-color="#12D0F2"></stop> </linearGradient> <linearGradient id="paid-search" x1="0.5" x2="0.5" y2="1" gradientUnits="objectBoundingBox"> <stop offset="0" stop-color="#44B45C"></stop> <stop offset="1" stop-color="#8AC604"></stop> </linearGradient> <linearGradient id="paid-social" x1="0.5" x2="0.5" y2="1" gradientUnits="objectBoundingBox"> <stop offset="0" stop-color="#006E54"></stop> <stop offset="1" stop-color="#44B45C"></stop> </linearGradient> <linearGradient id="website-design-development" x1="0.5" x2="0.5" y2="1" gradientUnits="objectBoundingBox"> <stop offset="0" stop-color="#0F3466"></stop> <stop offset="1" stop-color="#3480C0"></stop> </linearGradient> <linearGradient id="strategy" x1="0.5" x2="0.5" y2="1" gradientUnits="objectBoundingBox"> <stop offset="0" stop-color="#333333"></stop> <stop offset="1" stop-color="#575556"></stop> </linearGradient> </defs> <g id="Tricircle" transform="translate(0)"> <path id="Path_354" data-name="Path 354" d="M1065.238,2606.287c-493.761,0-910.143-564.854-1012.6-1373.593C1.329,827.54,78.706,484.462,270.637,266.759,417.013,100.659,623.256,12.81,867.023,12.81c156.733,0,325.857,36.071,502.6,107.281,843.413,339.587,1401.227,937.487,1243.447,1332.751-156.558,392.3-743.636,889.141-1308.723,1107.543-78.774,30.486-159.234,45.9-239.113,45.9ZM867.023,33.522c-237.659,0-438.49,85.406-580.853,246.909C98.254,493.655,22.622,830.915,73.179,1230.077c101.114,798.092,509.061,1355.5,992.059,1355.5,77.319,0,155.278-15.01,231.667-44.506,560.433-216.6,1142.274-708.264,1296.971-1095.907,153.533-384.734-399.162-970.532-1231.986-1305.931C1187.587,69.069,1021.08,33.463,867.023,33.463h0Z" transform="translate(179.161 61.717)" fill="url(#strategy)"></path> <path id="Path_355" data-name="Path 355" d="M1226.156,2851.5c-573.465,0-1056.636-619.542-1175.03-1506.588C-6.645,911.772,77.6,540.594,288.32,299.852,460.121,103.674,706.041,0,999.609,0c181.226,0,376.589,39.561,580.562,117.52,691.159,264.3,1245.367,686.971,1411.99,1076.882,61.844,144.748,68.3,277.395,19.2,394.275-180.644,429.822-856.212,973.5-1506.006,1211.972-91.98,33.743-185.88,50.848-279.2,50.848ZM999.609,59.866c-275.766,0-506.152,96.634-666.2,279.431C134.205,566.891,55.024,921.2,110.468,1337,222.927,2179.887,692.136,2791.633,1226.1,2791.633c86.22,0,173.255-15.883,258.6-47.183,636.3-233.528,1296.332-762.428,1471.449-1178.927,42.587-101.289,36.187-218.227-19.083-347.5-160.573-375.716-701.574-785.7-1378.305-1044.477C1361.653,98.147,1173.5,59.924,999.609,59.924h0Z" transform="translate(160.78 0)" fill="url(#strategy)"></path> <path id="Path_356" data-name="Path 356" d="M1040.13,2335.147c-499.112,0-920.208-496.552-1024.056-1207.551C-32.738,793.187,30.095,513.872,197.765,319.905,347.051,147.174,568.769,55.95,838.833,55.95c158.536,0,329.581,31.707,508.479,94.191C1972.556,368.6,2463.93,715.228,2599.08,1033.289c44.913,105.768,47.88,202.577,8.668,287.75C2449.037,1665.979,1853.93,2102.9,1281.105,2295c-79.414,26.645-160.514,40.143-240.975,40.143ZM838.891,68.633c-266.282,0-484.626,89.769-631.468,259.592C42.2,519.341-19.589,795.107,28.7,1125.735c102.859,704.6,518.835,1196.672,1011.432,1196.672,79.123,0,158.827-13.265,236.961-39.5,569.916-191.116,1161.706-625.01,1319.137-967.215,37.642-81.8,34.675-175.117-8.843-277.453-133.81-314.92-622.218-658.812-1244.262-876.109-177.5-62.018-347.209-93.493-504.29-93.493h0Z" transform="translate(0.003 269.558)" fill="url(#strategy)"></path> <path id="Path_357" data-name="Path 357" d="M1030.932,2564.332c-471.594,0-869.128-538.151-966.751-1308.666C15.253,869.478,89.2,542.283,272.46,334.353,412.553,175.41,609.778,91.4,842.783,91.4c149.519,0,310.673,34.383,479.1,102.219C2125.326,517.15,2656.2,1087.938,2505.289,1465.981c-149.111,373.621-707.856,846.612-1245.483,1054.426-75.4,29.147-152.486,43.925-228.991,43.925h.117ZM842.783,122.293c-223.929,0-413.125,80.4-547.168,232.481C118.287,555.955,47.018,874.54,94.783,1251.827,188.857,1994.474,582.551,2533.5,1030.873,2533.5c72.665,0,145.969-14.08,217.82-41.83,530.7-205.137,1081.537-670.332,1227.913-1037.089C2621.18,1092.3,2098.04,539.49,1310.363,222.3c-164.761-66.323-322.076-99.95-467.58-99.95h0Z" transform="translate(238.309 440.351)" fill="url(#strategy)"></path> <path id="Path_358" data-name="Path 358" d="M1153.354,2862.285c-544.084,0-1002.821-621.637-1115.571-1511.65-56.491-446,28.8-823.748,240.277-1063.676C439.505,103.7,666.925,6.83,935.651,6.83c172.615,0,358.728,39.736,553.277,118.044C2416.99,498.612,3030.54,1157.308,2856.586,1593.181,2684.32,2024.865,2038.6,2571.393,1417.194,2811.553c-86.919,33.627-175.7,50.615-263.839,50.615h0Zm-217.7-2825.9c-260.057,0-479.8,93.376-635.541,270.064C94.333,539.919,11.545,909.41,66.989,1346.911,177.819,2221.8,624.513,2832.788,1153.3,2832.788c84.475,0,169.706-16.348,253.251-48.637,614.771-237.6,1252.989-776.74,1422.637-1201.792,167.961-420.8-438.2-1062.338-1351.252-1430.025-191-76.912-373.447-115.891-542.281-115.891h0Z" transform="translate(100.12 32.906)" fill="url(#strategy)"></path> <path id="Path_359" data-name="Path 359" d="M1125.384,2448.35C604.105,2448.35,165.672,1931.318,59.206,1191,8.242,836.517,76.194,539.633,255.733,332.4,414.153,149.6,646.343,52.97,927.17,52.97c162.783,0,337.842,32.813,520.29,97.565,627.8,222.707,1124.589,580.737,1265.556,912.121,51.371,120.778,54.629,237.484,9.309,337.551-164.762,363.615-753.7,805.073-1340.781,1004.916-84.3,28.741-170.463,43.285-256.159,43.285h0ZM927.17,181.835c-242.371,0-440.818,81.217-573.988,234.983C198.834,594.96,141.3,856.3,186.849,1172.672c95.587,664.455,490.269,1146.755,938.534,1146.755,71.5,0,143.7-12.218,214.62-36.362,548.157-186.636,1115.63-606.568,1264.915-936.091,30.486-67.2,26.937-145.912-10.472-233.819C2468.9,818.016,1990.671,480,1404.407,272.07c-168.6-59.807-329.116-90.118-477.18-90.118h0Z" transform="translate(205.991 255.201)" fill="url(#strategy)"></path> <path id="Path_360" data-name="Path 360" d="M1070.8,2658.714c-503.36,0-927.364-571.545-1031.038-1389.824-52.012-410.565,26.995-758.763,222.474-980.6C412.276,118.062,623.347,28.06,872.584,28.06c159.176,0,330.628,36.536,509.585,108.619,852.9,343.427,1415.306,952.148,1253.744,1356.9C2477.726,1890,1885.877,2391.559,1316.6,2611.588c-80.926,31.3-163.656,47.125-245.862,47.125h0ZM872.584,85.889c-232.132,0-428.193,83.2-566.948,240.626C121.326,535.667,47.265,867.749,97.124,1261.559c98.321,775.984,507.781,1339.267,973.616,1339.267,75.05,0,150.682-14.544,224.976-43.226,556.3-215.028,1133.374-701.981,1286.383-1085.493,149.751-375.251-398.231-950.228-1221.63-1281.787C1188.376,121.029,1024.2,85.889,872.526,85.889h0Z" transform="translate(116.411 135.189)" fill="url(#strategy)"></path> <g id="Group_92" data-name="Group 92" transform="translate(216.344 74.526)" style="mix-blend-mode: multiply;isolation: isolate"> <path id="Path_361" data-name="Path 361" d="M1065.238,2606.287c-493.761,0-910.143-564.854-1012.6-1373.593C1.329,827.54,78.706,484.462,270.637,266.759,417.013,100.659,623.256,12.81,867.023,12.81c156.733,0,325.857,36.071,502.6,107.281,843.413,339.587,1401.227,937.487,1243.447,1332.751-156.558,392.3-743.636,889.141-1308.723,1107.543-78.774,30.486-159.234,45.9-239.113,45.9ZM867.023,33.522c-237.659,0-438.49,85.406-580.853,246.909C98.254,493.655,22.622,830.915,73.179,1230.077c101.114,798.092,509.061,1355.5,992.059,1355.5,77.319,0,155.278-15.01,231.667-44.506,560.433-216.6,1142.274-708.264,1296.971-1095.907,153.533-384.734-399.162-970.532-1231.986-1305.931C1187.587,69.069,1021.08,33.463,867.023,33.463h0Z" transform="translate(-37.183 -12.81)" fill="url(#strategy)"></path> </g> <g id="Group_93" data-name="Group 93" transform="translate(194.147)" style="mix-blend-mode: multiply;isolation: isolate"> <path id="Path_362" data-name="Path 362" d="M1226.156,2851.5c-573.465,0-1056.636-619.542-1175.03-1506.588C-6.645,911.772,77.6,540.594,288.32,299.852,460.121,103.674,706.041,0,999.609,0c181.226,0,376.589,39.561,580.562,117.52,691.159,264.3,1245.367,686.971,1411.99,1076.882,61.844,144.748,68.3,277.395,19.2,394.275-180.644,429.822-856.212,973.5-1506.006,1211.972-91.98,33.743-185.88,50.848-279.2,50.848ZM999.609,59.866c-275.766,0-506.152,96.634-666.2,279.431C134.205,566.891,55.024,921.2,110.468,1337,222.927,2179.887,692.136,2791.633,1226.1,2791.633c86.22,0,173.255-15.883,258.6-47.183,636.3-233.528,1296.332-762.428,1471.449-1178.927,42.587-101.289,36.187-218.227-19.083-347.5-160.573-375.716-701.574-785.7-1378.305-1044.477C1361.653,98.147,1173.5,59.924,999.609,59.924h0Z" transform="translate(-33.368 0)" fill="url(#strategy)"></path> </g> <g id="Group_94" data-name="Group 94" transform="translate(0 325.508)" style="mix-blend-mode: multiply;isolation: isolate"> <path id="Path_363" data-name="Path 363" d="M1040.13,2335.147c-499.112,0-920.208-496.552-1024.056-1207.551C-32.738,793.187,30.095,513.872,197.765,319.905,347.051,147.174,568.769,55.95,838.833,55.95c158.536,0,329.581,31.707,508.479,94.191C1972.556,368.6,2463.93,715.228,2599.08,1033.289c44.913,105.768,47.88,202.577,8.668,287.75C2449.037,1665.979,1853.93,2102.9,1281.105,2295c-79.414,26.645-160.514,40.143-240.975,40.143ZM838.891,68.633c-266.282,0-484.626,89.769-631.468,259.592C42.2,519.341-19.589,795.107,28.7,1125.735c102.859,704.6,518.835,1196.672,1011.432,1196.672,79.123,0,158.827-13.265,236.961-39.5,569.916-191.116,1161.706-625.01,1319.137-967.215,37.642-81.8,34.675-175.117-8.843-277.453-133.81-314.92-622.218-658.812-1244.262-876.109-177.5-62.018-347.209-93.493-504.29-93.493h0Z" transform="translate(0.003 -55.95)" fill="url(#strategy)"></path> </g> <g id="Group_95" data-name="Group 95" transform="translate(287.769 531.751)" style="mix-blend-mode: multiply;isolation: isolate"> <path id="Path_364" data-name="Path 364" d="M1030.932,2564.332c-471.594,0-869.128-538.151-966.751-1308.666C15.253,869.478,89.2,542.283,272.46,334.353,412.553,175.41,609.778,91.4,842.783,91.4c149.519,0,310.673,34.383,479.1,102.219C2125.326,517.15,2656.2,1087.938,2505.289,1465.981c-149.111,373.621-707.856,846.612-1245.483,1054.426-75.4,29.147-152.486,43.925-228.991,43.925h.117ZM842.783,122.293c-223.929,0-413.125,80.4-547.168,232.481C118.287,555.955,47.018,874.54,94.783,1251.827,188.857,1994.474,582.551,2533.5,1030.873,2533.5c72.665,0,145.969-14.08,217.82-41.83,530.7-205.137,1081.537-670.332,1227.913-1037.089C2621.18,1092.3,2098.04,539.49,1310.363,222.3c-164.761-66.323-322.076-99.95-467.58-99.95h0Z" transform="translate(-49.46 -91.4)" fill="url(#strategy)"></path> </g> <g id="Group_96" data-name="Group 96" transform="translate(120.896 39.736)" style="mix-blend-mode: multiply;isolation: isolate"> <path id="Path_365" data-name="Path 365" d="M1153.354,2862.285c-544.084,0-1002.821-621.637-1115.571-1511.65-56.491-446,28.8-823.748,240.277-1063.676C439.505,103.7,666.925,6.83,935.651,6.83c172.615,0,358.728,39.736,553.277,118.044C2416.99,498.612,3030.54,1157.308,2856.586,1593.181,2684.32,2024.865,2038.6,2571.393,1417.194,2811.553c-86.919,33.627-175.7,50.615-263.839,50.615h0Zm-217.7-2825.9c-260.057,0-479.8,93.376-635.541,270.064C94.333,539.919,11.545,909.41,66.989,1346.911,177.819,2221.8,624.513,2832.788,1153.3,2832.788c84.475,0,169.706-16.348,253.251-48.637,614.771-237.6,1252.989-776.74,1422.637-1201.792,167.961-420.8-438.2-1062.338-1351.252-1430.025-191-76.912-373.447-115.891-542.281-115.891h0Z" transform="translate(-20.777 -6.83)" fill="url(#strategy)"></path> </g> <g id="Group_97" data-name="Group 97" transform="translate(248.743 308.171)" style="mix-blend-mode: multiply;isolation: isolate"> <path id="Path_366" data-name="Path 366" d="M1125.384,2448.35C604.105,2448.35,165.672,1931.318,59.206,1191,8.242,836.517,76.194,539.633,255.733,332.4,414.153,149.6,646.343,52.97,927.17,52.97c162.783,0,337.842,32.813,520.29,97.565,627.8,222.707,1124.589,580.737,1265.556,912.121,51.371,120.778,54.629,237.484,9.309,337.551-164.762,363.615-753.7,805.073-1340.781,1004.916-84.3,28.741-170.463,43.285-256.159,43.285h0ZM927.17,181.835c-242.371,0-440.818,81.217-573.988,234.983C198.834,594.96,141.3,856.3,186.849,1172.672c95.587,664.455,490.269,1146.755,938.534,1146.755,71.5,0,143.7-12.218,214.62-36.362,548.157-186.636,1115.63-606.568,1264.915-936.091,30.486-67.2,26.937-145.912-10.472-233.819C2468.9,818.016,1990.671,480,1404.407,272.07c-168.6-59.807-329.116-90.118-477.18-90.118h0Z" transform="translate(-42.752 -52.97)" fill="url(#strategy)"></path> </g> <g id="Group_98" data-name="Group 98" transform="translate(140.57 163.249)" style="mix-blend-mode: multiply;isolation: isolate"> <path id="Path_367" data-name="Path 367" d="M1070.8,2658.714c-503.36,0-927.364-571.545-1031.038-1389.824-52.012-410.565,26.995-758.763,222.474-980.6C412.276,118.062,623.347,28.06,872.584,28.06c159.176,0,330.628,36.536,509.585,108.619,852.9,343.427,1415.306,952.148,1253.744,1356.9C2477.726,1890,1885.877,2391.559,1316.6,2611.588c-80.926,31.3-163.656,47.125-245.862,47.125h0ZM872.584,85.889c-232.132,0-428.193,83.2-566.948,240.626C121.326,535.667,47.265,867.749,97.124,1261.559c98.321,775.984,507.781,1339.267,973.616,1339.267,75.05,0,150.682-14.544,224.976-43.226,556.3-215.028,1133.374-701.981,1286.383-1085.493,149.751-375.251-398.231-950.228-1221.63-1281.787C1188.376,121.029,1024.2,85.889,872.526,85.889h0Z" transform="translate(-24.158 -28.06)" fill="url(#strategy)"></path> </g> </g> </svg>