<svg id="Koozai_Wordmark" data-name="Koozai Wordmark" xmlns="http://www.w3.org/2000/svg" width="75" height="16" viewBox="0 0 399.999 79.462"> <path id="Path_348" data-name="Path 348" d="M56.433,65.868c-6.8-8.011-9.674-17.671-9.212-29.008,1.5-16.774,11.337-30.816,27.952-35.5A42.018,42.018,0,0,1,86.655,0,41.256,41.256,0,0,1,97.834,1.359c16.47,4.685,26.738,18.582,28.1,35.5q.911,17-9.067,29.008c-7.4,8.908-18.278,13.593-30.209,13.593S63.837,74.776,56.433,65.868Zm30.077-55.6A32.085,32.085,0,0,0,78.5,11.323c-12.7,3.326-20.1,15.111-20.1,28.7a29.646,29.646,0,0,0,6.651,19.189,28.168,28.168,0,0,0,21.6,9.977A29.5,29.5,0,0,0,108.4,59.217a30.881,30.881,0,0,0,6.651-18.885c0-13.752-7.4-25.682-20.245-29.008A35.536,35.536,0,0,0,86.5,10.268Z" transform="translate(15.084)" fill="#ffffff"></path> <path id="Path_349" data-name="Path 349" d="M121.573,65.868c-6.8-8.011-9.674-17.671-9.212-29.008,1.518-16.774,11.337-30.816,27.952-35.5A42.018,42.018,0,0,1,151.8,0a41.255,41.255,0,0,1,11.178,1.359c16.47,4.685,26.738,18.582,28.1,35.5q.911,17-9.067,29.008c-7.4,8.908-18.278,13.593-30.209,13.593S128.977,74.776,121.573,65.868Zm30.064-55.6a32.085,32.085,0,0,0-8.011,1.056c-12.7,3.326-20.1,15.111-20.1,28.7a29.646,29.646,0,0,0,6.651,19.189,28.168,28.168,0,0,0,21.6,9.977,29.5,29.5,0,0,0,21.749-9.977,30.881,30.881,0,0,0,6.651-18.885c0-13.752-7.4-25.682-20.245-29.008a35.536,35.536,0,0,0-8.314-1.056Z" transform="translate(35.912)" fill="#ffffff"></path> <path id="Path_350" data-name="Path 350" d="M189.945,67.689l48.5-.145c7.245,0,7.852,10.268.145,10.268H179.519c-6.19,0-7.707-5.886-3.933-9.37l51.061-57.105c-15.863,0-29.457.145-45.32.145-7.1,0-6.8-10.571,0-10.571h56.049c5.437,0,8.011,5.741,4.382,9.674v-.145L189.932,67.7Z" transform="translate(55.486 0.291)" fill="#ffffff"></path> <path id="Path_351" data-name="Path 351" d="M294.73,5.889c0-6.493,11.033-6.651,11.033-.145V73.882c0,6.651-11.033,6.493-11.033,0Z" transform="translate(94.236 0.301)" fill="#ffffff"></path> <path id="Path_352" data-name="Path 352" d="M307.93,40.239c0-1.109.013-2.23-.04-3.379-1.359-16.919-11.64-30.816-28.1-35.5A41.945,41.945,0,0,0,268.615,0a42.693,42.693,0,0,0-11.482,1.359c-16.615,4.685-26.434,18.727-27.952,35.5-.449,11.337,2.415,21,9.212,29.008,7.4,8.908,18.133,13.593,30.222,13.593,10.98,0,21.023-4.012,28.335-11.574v5.662c0,7.641,11.033,7.826,11.033,0V40.226h-.026ZM290.364,59.217a29.791,29.791,0,0,1-21.749,9.977,28.412,28.412,0,0,1-21.6-9.977,29.719,29.719,0,0,1-6.651-19.189c0-13.593,7.4-25.379,20.086-28.7a32,32,0,0,1,8.011-1.056,35.422,35.422,0,0,1,8.3,1.056C289.6,14.649,297,26.58,297,40.331a30.881,30.881,0,0,1-6.652,18.885Z" transform="translate(73.264)" fill="#ffffff"></path> <path id="Path_353" data-name="Path 353" d="M48.646,2.061C54.532-3.231,62.239,4.172,56.5,9.61L28.242,35.754l31.119,34.3c5.134,6.2-3.933,12.538-8.618,6.493l-30.8-34.59-8.908,8.011V73.538c0,6.8-11.033,7.1-11.033,0V5.123c0-6.19,11.033-6.19,11.033,0v32.6L21.459,27.439Z" transform="translate(0 0.078)" fill="#ffffff"></path> </svg>