<svg width="155" height="60" viewBox="0 0 155 60" fill="none" xmlns="http://www.w3.org/2000/svg">
<g clip-path="url(#clip0_74_598)">
<path d="M139.264 38.8294L127.921 44.7993L136.109 58.9353L140.056 52.9599H140.078L147.202 52.5307L139.264 38.8294Z" fill="#F26C6E"/>
<path d="M115.173 39.058L107.101 52.5307L114.236 52.9599H114.247L118.194 58.9354L126.628 44.8328L115.173 39.058Z" fill="#F26C6E"/>
<mask id="mask0_74_598" style="mask-type:luminance" maskUnits="userSpaceOnUse" x="99" y="5" width="56" height="55">
<path d="M154.465 5.37347H99.8383V60H154.465V5.37347Z" fill="white"/>
</mask>
<g mask="url(#mask0_74_598)">
<path d="M146.366 25.6522C146.366 24.398 145.881 23.2553 145.089 22.3969C144.37 21.6221 144.08 20.5351 144.314 19.5039C144.576 18.3668 144.426 17.1349 143.796 16.0479C143.166 14.961 142.174 14.2141 141.059 13.8685C140.045 13.5563 139.253 12.7648 138.941 11.7503C138.595 10.6355 137.854 9.64884 136.761 9.01896C135.691 8.40023 134.487 8.24416 133.367 8.48384C132.291 8.71238 131.176 8.41138 130.357 7.67559C129.509 6.91194 128.384 6.44371 127.152 6.44371C125.92 6.44371 124.755 6.92866 123.896 7.72019C123.122 8.43925 122.035 8.72911 121.003 8.49499C119.866 8.23301 118.634 8.38908 117.547 9.01339C116.46 9.64326 115.714 10.6355 115.368 11.7447C115.056 12.7592 114.264 13.5507 113.25 13.8629C112.135 14.2085 111.148 14.9554 110.518 16.0424C109.889 17.1293 109.738 18.3612 110 19.4983C110.234 20.5296 109.944 21.6165 109.225 22.3913C108.434 23.2442 107.949 24.3869 107.949 25.6466C107.949 26.9064 108.434 28.0435 109.225 28.9019C109.944 29.6767 110.234 30.7637 110 31.7949C109.738 32.932 109.894 34.1639 110.518 35.2508C111.148 36.3378 112.14 37.0847 113.25 37.4303C114.27 37.7425 115.056 38.5452 115.368 39.5485C115.714 40.6633 116.46 41.65 117.547 42.2798C118.489 42.8205 119.537 43.01 120.541 42.8818C121.048 42.8205 122.536 42.3077 123.902 43.5786C124.822 44.4314 125.987 44.8551 127.157 44.8551C128.411 44.8551 129.554 44.3757 130.412 43.5786C131.187 42.8595 132.274 42.5697 133.305 42.8038C134.443 43.0658 135.674 42.9097 136.761 42.2854C137.848 41.6555 138.595 40.6633 138.941 39.5541C139.247 38.5619 140.033 37.7536 141.059 37.4359C142.174 37.0903 143.166 36.3434 143.796 35.2564C144.426 34.1695 144.576 32.9376 144.314 31.8005C144.08 30.7692 144.37 29.6823 145.089 28.9075C145.881 28.0546 146.366 26.9119 146.366 25.6522Z" fill="#FDD92E"/>
<path d="M115.173 39.058L107.101 52.5307L114.236 52.9599H114.247L118.194 58.9354L126.628 44.8328" stroke="#294B93" stroke-linecap="round" stroke-linejoin="round"/>
<path d="M127.926 44.7993L136.115 58.9353L140.061 52.9599H140.084L147.207 52.5307L139.27 38.8294" stroke="#294B93" stroke-linecap="round" stroke-linejoin="round"/>
<path d="M139.264 38.8294C139.671 38.1717 140.301 37.67 141.059 37.4359C142.174 37.0903 143.166 36.3434 143.796 35.2564C144.426 34.1695 144.576 32.9376 144.314 31.8005C144.08 30.7692 144.37 29.6823 145.089 28.9075C145.881 28.0546 146.366 26.9119 146.366 25.6522C146.366 24.3924 145.881 23.2553 145.089 22.3969C144.37 21.6221 144.08 20.5351 144.314 19.5039C144.576 18.3668 144.426 17.1349 143.796 16.0479C143.166 14.961 142.174 14.2141 141.059 13.8685C140.045 13.5563 139.253 12.7648 138.941 11.7503C138.595 10.6355 137.854 9.64884 136.761 9.01896C135.691 8.40023 134.487 8.24416 133.367 8.48384C132.291 8.71238 131.176 8.41138 130.357 7.67559C129.509 6.91194 128.384 6.44371 127.152 6.44371C125.92 6.44371 124.755 6.92866 123.896 7.72019C123.122 8.43925 122.035 8.72911 121.003 8.49499C119.866 8.23301 118.634 8.38908 117.547 9.01339C116.46 9.64326 115.714 10.6355 115.368 11.7447C115.056 12.7592 114.264 13.5507 113.25 13.8629C112.135 14.2085 111.148 14.9554 110.518 16.0424C109.889 17.1293 109.738 18.3612 110 19.4983C110.234 20.5296 109.944 21.6165 109.225 22.3913C108.434 23.2442 107.949 24.3869 107.949 25.6466C107.949 26.9064 108.434 28.0435 109.225 28.9019C109.944 29.6767 110.234 30.7637 110 31.7949C109.738 32.932 109.894 34.1639 110.518 35.2508C111.148 36.3378 112.14 37.0847 113.25 37.4303C114.091 37.6923 114.777 38.2776 115.167 39.0524C115.251 39.2141 115.318 39.3757 115.368 39.5485C115.714 40.6633 116.46 41.65 117.547 42.2798C118.489 42.8205 119.537 43.01 120.541 42.8818C120.697 42.8651 120.853 42.8372 121.009 42.7982C122.04 42.5641 123.127 42.854 123.902 43.573C124.632 44.2531 125.58 44.7046 126.622 44.8216C126.795 44.8439 126.973 44.8495 127.152 44.8495C127.414 44.8495 127.67 44.8272 127.921 44.7882C128.874 44.6321 129.727 44.1973 130.407 43.573C131.182 42.854 132.269 42.5641 133.3 42.7982C133.545 42.854 133.796 42.893 134.052 42.9097C134.967 42.971 135.903 42.7704 136.756 42.2798C137.843 41.65 138.59 40.6578 138.935 39.5485C139.013 39.2921 139.125 39.0468 139.264 38.8239V38.8294Z" stroke="#294B93" stroke-linecap="round" stroke-linejoin="round"/>
<path d="M130.223 26.65L133.244 23.6734L129.052 23.0435L127.157 19.2531L125.262 23.0435L121.07 23.6734L124.091 26.65L123.395 30.8361L127.157 28.8852L130.92 30.8361L130.223 26.65Z" stroke="#294B93" stroke-linecap="round" stroke-linejoin="round"/>
<path d="M114.169 53.0658L114.236 52.9599L120.546 42.893" stroke="#294B93" stroke-linecap="round" stroke-linejoin="round"/>
<path d="M134.058 42.9209L140.078 52.9599" stroke="#294B93" stroke-linecap="round" stroke-linejoin="round"/>
<path d="M128.216 38.4504C128.216 39.0413 127.737 39.5151 127.152 39.5151C126.566 39.5151 126.087 39.0357 126.087 38.4504C126.087 37.8651 126.566 37.3857 127.152 37.3857C127.737 37.3857 128.216 37.8651 128.216 38.4504Z" fill="#010101"/>
<path d="M122.43 37.553C117.698 35.6745 114.353 31.0535 114.353 25.6466C114.353 18.5786 120.084 12.8428 127.157 12.8428C134.231 12.8428 139.961 18.573 139.961 25.6466C139.961 31.0535 136.611 35.6801 131.873 37.553" stroke="#294B93" stroke-linecap="round" stroke-linejoin="round"/>
</g>
<path d="M13.4337 52.6867V11.2765H0V0H38.8852V11.2765H25.3066V52.6812H13.4337V52.6867Z" fill="url(#paint0_linear_74_598)"/>
<path d="M36.8506 30.1003C35.6243 30.1003 34.5875 29.6154 33.7347 28.6399C32.8818 27.6644 32.4582 26.505 32.4582 25.1505C32.4582 23.796 32.8874 22.6366 33.7347 21.6611C34.5875 20.6856 35.6243 20.2007 36.8506 20.2007C37.9376 20.2007 38.796 20.5853 39.4259 21.3545V20.4069H42.2854V29.8829H39.4259V28.9353C38.796 29.7046 37.9376 30.0892 36.8506 30.0892V30.1003ZM35.9309 26.8395C36.3266 27.2798 36.8506 27.5028 37.4916 27.5028C38.1327 27.5028 38.6566 27.2798 39.058 26.8395C39.4537 26.3991 39.6544 25.8361 39.6544 25.1505C39.6544 24.4649 39.4537 23.9075 39.058 23.4615C38.6622 23.0156 38.1382 22.7982 37.4916 22.7982C36.845 22.7982 36.3266 23.0212 35.9309 23.4615C35.5351 23.9019 35.3344 24.4649 35.3344 25.1505C35.3344 25.8361 35.5351 26.3935 35.9309 26.8395Z" fill="#284B93"/>
<path d="M44.6432 29.8885V15.6745H47.5028V29.8885H44.6432Z" fill="#284B93"/>
<path d="M54.3088 30.1003C52.8428 30.1003 51.6388 29.6321 50.6968 28.6957C49.7547 27.7592 49.2865 26.5719 49.2865 25.1338C49.2865 23.6957 49.7659 22.5418 50.7191 21.6109C51.6722 20.6745 52.8707 20.2063 54.3088 20.2063C55.0056 20.2063 55.6577 20.3289 56.2709 20.5686C56.884 20.8083 57.4247 21.1539 57.8985 21.6109C58.3723 22.068 58.7402 22.6533 59.0078 23.3724C59.2754 24.0914 59.3924 24.9052 59.3701 25.8194H52.0736C52.1237 26.3378 52.3523 26.7726 52.7536 27.1182C53.1605 27.4638 53.7291 27.6422 54.4593 27.6422C54.8774 27.6422 55.2564 27.5585 55.5964 27.3857C55.9364 27.2129 56.165 27.0011 56.2765 26.7503H59.2698C58.9688 27.7481 58.3612 28.5563 57.4526 29.175C56.544 29.7938 55.4961 30.1059 54.3088 30.1059V30.1003ZM54.2308 22.4805C53.6901 22.4805 53.233 22.6199 52.8762 22.8986C52.5195 23.1773 52.2742 23.5452 52.146 23.9967H56.204C56.0647 23.4783 55.8082 23.0992 55.4348 22.8484C55.0613 22.6031 54.66 22.4805 54.2308 22.4805Z" fill="#284B93"/>
<path d="M61.1483 29.8885V20.4125H64.0078V21.3768C64.5485 20.5909 65.4292 20.2007 66.6444 20.2007C67.7926 20.2007 68.6956 20.5853 69.3478 21.3545C70 22.1237 70.3233 23.1438 70.3233 24.4036V29.8829H67.4638V24.8997C67.4638 23.495 66.9509 22.7982 65.9309 22.7982C65.3623 22.7982 64.8997 23.0045 64.5485 23.4225C64.1973 23.8406 64.0189 24.4593 64.0189 25.2787V29.8829H61.1594L61.1483 29.8885Z" fill="#284B93"/>
<path d="M77.2742 30.0056C76.165 30.0056 75.2508 29.699 74.5373 29.0858C73.8239 28.4727 73.4671 27.5864 73.4671 26.4214V22.8986H71.5719V20.4181H73.4671V17.7815H76.3266V20.4181H78.9799V22.8986H76.3266V25.8361C76.3266 26.4047 76.4548 26.8172 76.7057 27.068C76.9565 27.3188 77.369 27.447 77.9376 27.447C78.3668 27.447 78.7124 27.3913 78.9799 27.2742V29.8161C78.5619 29.9443 77.9933 30.0056 77.2742 30.0056Z" fill="#284B93"/>
<path d="M85.1059 30.1003C83.6399 30.1003 82.4359 29.6321 81.4939 28.6957C80.5518 27.7592 80.0836 26.5719 80.0836 25.1338C80.0836 23.6957 80.563 22.5418 81.5162 21.6109C82.4694 20.6745 83.6678 20.2063 85.1059 20.2063C85.8027 20.2063 86.4549 20.3289 87.068 20.5686C87.6812 20.8083 88.2219 21.1539 88.6957 21.6109C89.1695 22.068 89.5374 22.6533 89.8049 23.3724C90.0725 24.0914 90.1895 24.9052 90.1672 25.8194H82.8707C82.9209 26.3378 83.1494 26.7726 83.5507 27.1182C83.9576 27.4638 84.5262 27.6422 85.2564 27.6422C85.6745 27.6422 86.0535 27.5585 86.3935 27.3857C86.7336 27.2129 86.9621 27.0011 87.0736 26.7503H90.0669C89.7659 27.7481 89.1583 28.5563 88.2497 29.175C87.3411 29.7938 86.2932 30.1059 85.1059 30.1059V30.1003ZM85.0279 22.4805C84.4872 22.4805 84.0301 22.6199 83.6734 22.8986C83.311 23.1773 83.0714 23.5452 82.9432 23.9967H87.0011C86.8618 23.4783 86.6054 23.0992 86.2319 22.8484C85.8584 22.6031 85.4571 22.4805 85.0279 22.4805Z" fill="#284B93"/>
<path d="M95.7748 30.1003C94.5485 30.1003 93.5117 29.6154 92.6589 28.6399C91.806 27.6644 91.3824 26.505 91.3824 25.1505C91.3824 23.796 91.806 22.6366 92.6589 21.6611C93.5117 20.6856 94.5485 20.2007 95.7748 20.2007C96.8618 20.2007 97.7202 20.5853 98.3501 21.3545V15.6689H101.21V29.8829H98.3501V28.9353C97.7202 29.7046 96.8618 30.0892 95.7748 30.0892V30.1003ZM94.8551 26.8395C95.2508 27.2798 95.7748 27.5028 96.4158 27.5028C97.0569 27.5028 97.5808 27.2798 97.9766 26.8395C98.3724 26.3991 98.573 25.8361 98.573 25.1505C98.573 24.4649 98.3724 23.9075 97.9766 23.4615C97.5808 23.0156 97.0569 22.7982 96.4158 22.7982C95.7748 22.7982 95.2508 23.0212 94.8551 23.4615C94.4593 23.9019 94.2586 24.4649 94.2586 25.1505C94.2586 25.8361 94.4593 26.3935 94.8551 26.8395Z" fill="#284B93"/>
<path d="M37.4805 52.893C36.0145 52.893 34.8105 52.4248 33.8684 51.4883C32.9264 50.5518 32.4582 49.3646 32.4582 47.9264C32.4582 46.4883 32.9376 45.3345 33.8907 44.4036C34.8439 43.4671 36.0424 42.9989 37.4805 42.9989C38.1773 42.9989 38.8294 43.1215 39.4426 43.3612C40.0557 43.6009 40.5964 43.9465 41.0702 44.4036C41.544 44.8606 41.9119 45.4459 42.1795 46.165C42.447 46.8841 42.5641 47.6979 42.5418 48.612H35.2453C35.2954 49.1304 35.524 49.5652 35.9253 49.9108C36.3322 50.2564 36.9008 50.4348 37.631 50.4348C38.0491 50.4348 38.4281 50.3512 38.7681 50.1784C39.1081 50.0056 39.3367 49.7938 39.4482 49.5429H42.4415C42.1405 50.5407 41.5329 51.3489 40.6243 51.9677C39.7157 52.5864 38.6678 52.8986 37.4805 52.8986V52.893ZM37.4024 45.2731C36.8618 45.2731 36.4047 45.4125 36.0479 45.6912C35.6912 45.9699 35.4459 46.3378 35.3177 46.7893H39.3757C39.2363 46.2709 38.9799 45.8919 38.6065 45.641C38.233 45.3958 37.8317 45.2731 37.4024 45.2731Z" fill="#4B4B4B"/>
<path d="M48.1494 52.893C46.9231 52.893 45.8863 52.408 45.0334 51.4326C44.1806 50.4571 43.757 49.2977 43.757 47.9432C43.757 46.5886 44.1862 45.4292 45.0334 44.4537C45.8863 43.4783 46.9231 42.9933 48.1494 42.9933C49.2363 42.9933 50.0948 43.3779 50.7246 44.1472V43.1996H53.5842V52.6756H50.7246V51.728C50.0948 52.4972 49.2363 52.8818 48.1494 52.8818V52.893ZM47.2296 49.6321C47.6254 50.0725 48.1494 50.2954 48.7904 50.2954C49.4314 50.2954 49.9554 50.0725 50.3567 49.6321C50.7525 49.1918 50.9532 48.6288 50.9532 47.9432C50.9532 47.2575 50.7525 46.7001 50.3567 46.2542C49.961 45.8083 49.437 45.5909 48.7904 45.5909C48.1438 45.5909 47.6254 45.8138 47.2296 46.2542C46.8339 46.6945 46.6332 47.2575 46.6332 47.9432C46.6332 48.6288 46.8339 49.1862 47.2296 49.6321Z" fill="#4B4B4B"/>
<path d="M60.3512 52.893C58.9242 52.893 57.7369 52.4136 56.7893 51.4604C55.8417 50.5073 55.3679 49.3367 55.3679 47.9432C55.3679 46.5496 55.8417 45.379 56.7893 44.4259C57.7369 43.4727 58.9242 42.9933 60.3512 42.9933C61.6499 42.9933 62.7258 43.3556 63.573 44.0747C64.4203 44.7938 64.9777 45.7358 65.2397 46.9008H62.2854C61.8673 46.0145 61.2263 45.5741 60.3512 45.5741C59.7324 45.5741 59.2252 45.786 58.835 46.2096C58.4448 46.6332 58.2497 47.2129 58.2497 47.9432C58.2497 48.6734 58.4448 49.2531 58.835 49.6767C59.2252 50.1003 59.7324 50.3122 60.3512 50.3122C61.2207 50.3122 61.8673 49.8718 62.2854 48.9855H65.2397C64.9721 50.1505 64.4203 51.087 63.573 51.8116C62.7258 52.5307 61.6499 52.893 60.3512 52.893Z" fill="#4B4B4B"/>
<path d="M69.7547 52.6867H66.8952V38.4727H69.7547V44.175C70.2954 43.3891 71.1761 42.9989 72.3913 42.9989C73.5396 42.9989 74.4426 43.3835 75.0948 44.1527C75.7469 44.922 76.0702 45.942 76.0702 47.2018V52.6812H73.2107V47.6979C73.2107 46.2932 72.6979 45.5964 71.6778 45.5964C71.1092 45.5964 70.6466 45.8027 70.2954 46.2207C69.9443 46.6388 69.7659 47.2575 69.7659 48.0769V52.6812L69.7547 52.6867Z" fill="#4B4B4B"/>
<path d="M82.7536 52.893C81.2876 52.893 80.0836 52.4248 79.1416 51.4883C78.1995 50.5518 77.7313 49.3646 77.7313 47.9264C77.7313 46.4883 78.2107 45.3345 79.1639 44.4036C80.1171 43.4671 81.3155 42.9989 82.7536 42.9989C83.4504 42.9989 84.1026 43.1215 84.7157 43.3612C85.3289 43.6009 85.8696 43.9465 86.3434 44.4036C86.8172 44.8606 87.1851 45.4459 87.4526 46.165C87.7202 46.8841 87.8372 47.6979 87.8149 48.612H80.5184C80.5686 49.1304 80.7971 49.5652 81.1984 49.9108C81.6053 50.2564 82.1739 50.4348 82.9041 50.4348C83.3222 50.4348 83.7012 50.3512 84.0412 50.1784C84.3813 50.0056 84.6098 49.7938 84.7213 49.5429H87.7146C87.4136 50.5407 86.806 51.3489 85.8974 51.9677C84.9889 52.5864 83.9409 52.8986 82.7536 52.8986V52.893ZM82.6756 45.2731C82.1349 45.2731 81.6778 45.4125 81.3211 45.6912C80.9643 45.9699 80.7191 46.3378 80.5909 46.7893H84.6488C84.5095 46.2709 84.2531 45.8919 83.8796 45.641C83.5061 45.3958 83.1048 45.2731 82.6756 45.2731Z" fill="#4B4B4B"/>
<path d="M89.5931 52.6867V43.2107H92.4526V44.6321C92.6031 44.2029 92.8874 43.8406 93.3055 43.5451C93.7235 43.2497 94.1917 43.0992 94.7101 43.0992C95.039 43.0992 95.3456 43.1382 95.641 43.2107V46.1092C95.2007 45.9587 94.777 45.8807 94.3701 45.8807C93.7625 45.8807 93.2943 46.0925 92.9599 46.5162C92.6254 46.9398 92.4582 47.4972 92.4582 48.194V52.6867H89.5987H89.5931Z" fill="#4B4B4B"/>
</g>
<defs>
<linearGradient id="paint0_linear_74_598" x1="1.29718e-06" y1="-2.22966" x2="39.019" y2="52.9543" gradientUnits="userSpaceOnUse">
<stop stop-color="#294B93"/>
<stop offset="1" stop-color="#4A4A4A"/>
</linearGradient>
<clipPath id="clip0_74_598">
<rect width="154.465" height="60" fill="white"/>
</clipPath>
</defs>
</svg>
